<?xml version="1.0" encoding="UTF-8" standalone="no"?>
<svg
   version="1.0"
   width="600"
   height="145"
   viewBox="0 0 6000 1450"
   preserveAspectRatio="xMidYMid meet"
   id="svg21"
   sodipodi:docname="splash_retrobox.svg"
   inkscape:version="1.1.2 (0a00cf5339, 2022-02-04)"
   xmlns:inkscape="http://www.inkscape.org/namespaces/inkscape"
   xmlns:sodipodi="http://sodipodi.sourceforge.net/DTD/sodipodi-0.dtd"
   xmlns="http://www.w3.org/2000/svg"
   xmlns:svg="http://www.w3.org/2000/svg"
   xmlns:rdf="http://www.w3.org/1999/02/22-rdf-syntax-ns#"
   xmlns:cc="http://creativecommons.org/ns#"
   xmlns:dc="http://purl.org/dc/elements/1.1/">
  <metadata
     id="metadata27">
    <rdf:RDF>
      <cc:Work
         rdf:about="">
        <dc:format>image/svg+xml</dc:format>
        <dc:type
           rdf:resource="http://purl.org/dc/dcmitype/StillImage" />
      </cc:Work>
    </rdf:RDF>
  </metadata>
  <defs
     id="defs25">
    <inkscape:path-effect
       effect="simplify"
       id="path-effect37937"
       is_visible="true"
       lpeversion="1"
       steps="1"
       threshold="0.000408163"
       smooth_angles="360"
       helper_size="0"
       simplify_individual_paths="false"
       simplify_just_coalesce="false" />
    <inkscape:path-effect
       effect="simplify"
       id="path-effect1010"
       is_visible="true"
       lpeversion="1"
       steps="1"
       threshold="0.000408163"
       smooth_angles="360"
       helper_size="0"
       simplify_individual_paths="false"
       simplify_just_coalesce="false" />
    <inkscape:path-effect
       effect="simplify"
       id="path-effect15105"
       is_visible="true"
       lpeversion="1"
       steps="1"
       threshold="0.000408163"
       smooth_angles="360"
       helper_size="0"
       simplify_individual_paths="false"
       simplify_just_coalesce="false" />
    <inkscape:path-effect
       effect="simplify"
       id="path-effect15101"
       is_visible="true"
       lpeversion="1"
       steps="1"
       threshold="0.000408163"
       smooth_angles="360"
       helper_size="0"
       simplify_individual_paths="false"
       simplify_just_coalesce="false" />
    <inkscape:path-effect
       effect="simplify"
       id="path-effect15097"
       is_visible="true"
       lpeversion="1"
       steps="1"
       threshold="0.000408163"
       smooth_angles="360"
       helper_size="0"
       simplify_individual_paths="false"
       simplify_just_coalesce="false" />
    <inkscape:path-effect
       effect="simplify"
       id="path-effect15093"
       is_visible="true"
       lpeversion="1"
       steps="1"
       threshold="0.000408163"
       smooth_angles="360"
       helper_size="0"
       simplify_individual_paths="false"
       simplify_just_coalesce="false" />
    <inkscape:path-effect
       effect="simplify"
       id="path-effect15089"
       is_visible="true"
       lpeversion="1"
       steps="1"
       threshold="0.000408163"
       smooth_angles="360"
       helper_size="0"
       simplify_individual_paths="false"
       simplify_just_coalesce="false" />
    <inkscape:path-effect
       effect="simplify"
       id="path-effect15085"
       is_visible="true"
       lpeversion="1"
       steps="1"
       threshold="0.000408163"
       smooth_angles="360"
       helper_size="0"
       simplify_individual_paths="false"
       simplify_just_coalesce="false" />
    <inkscape:path-effect
       effect="simplify"
       id="path-effect14888"
       is_visible="true"
       lpeversion="1"
       steps="1"
       threshold="0.000408163"
       smooth_angles="360"
       helper_size="0"
       simplify_individual_paths="false"
       simplify_just_coalesce="false" />
    <inkscape:path-effect
       effect="simplify"
       id="path-effect14884"
       is_visible="true"
       lpeversion="1"
       steps="1"
       threshold="0.000408163"
       smooth_angles="360"
       helper_size="0"
       simplify_individual_paths="false"
       simplify_just_coalesce="false" />
    <inkscape:path-effect
       effect="simplify"
       id="path-effect14880"
       is_visible="true"
       lpeversion="1"
       steps="1"
       threshold="0.000408163"
       smooth_angles="360"
       helper_size="0"
       simplify_individual_paths="false"
       simplify_just_coalesce="false" />
    <inkscape:path-effect
       effect="simplify"
       id="path-effect14356"
       is_visible="true"
       lpeversion="1"
       steps="1"
       threshold="0.000408163"
       smooth_angles="360"
       helper_size="0"
       simplify_individual_paths="false"
       simplify_just_coalesce="false" />
    <inkscape:path-effect
       effect="simplify"
       id="path-effect14352"
       is_visible="true"
       lpeversion="1"
       steps="1"
       threshold="0.000408163"
       smooth_angles="360"
       helper_size="0"
       simplify_individual_paths="false"
       simplify_just_coalesce="false" />
    <inkscape:path-effect
       effect="simplify"
       id="path-effect14348"
       is_visible="true"
       lpeversion="1"
       steps="1"
       threshold="0.000408163"
       smooth_angles="360"
       helper_size="0"
       simplify_individual_paths="false"
       simplify_just_coalesce="false" />
    <inkscape:path-effect
       effect="simplify"
       id="path-effect13379"
       is_visible="true"
       lpeversion="1"
       steps="1"
       threshold="0.000408163"
       smooth_angles="360"
       helper_size="0"
       simplify_individual_paths="false"
       simplify_just_coalesce="false" />
    <inkscape:path-effect
       effect="skeletal"
       id="path-effect13375"
       is_visible="true"
       lpeversion="1"
       pattern="M 0,188.67925 C 0,84.528302 84.528302,0 188.67925,0 c 104.15094,0 188.67924,84.528302 188.67924,188.67925 0,104.15094 -84.5283,188.67924 -188.67924,188.67924 C 84.528302,377.35849 0,292.83019 0,188.67925 Z"
       copytype="single_stretched"
       prop_scale="1"
       scale_y_rel="false"
       spacing="0"
       normal_offset="0"
       tang_offset="0"
       prop_units="false"
       vertical_pattern="false"
       hide_knot="false"
       fuse_tolerance="0" />
    <inkscape:path-effect
       effect="simplify"
       id="path-effect13373"
       is_visible="true"
       lpeversion="1"
       steps="1"
       threshold="0.000408163"
       smooth_angles="360"
       helper_size="0"
       simplify_individual_paths="false"
       simplify_just_coalesce="false" />
    <inkscape:path-effect
       effect="skeletal"
       id="path-effect13369"
       is_visible="true"
       lpeversion="1"
       pattern="M 0,188.67925 C 0,84.528302 84.528302,0 188.67925,0 c 104.15094,0 188.67924,84.528302 188.67924,188.67925 0,104.15094 -84.5283,188.67924 -188.67924,188.67924 C 84.528302,377.35849 0,292.83019 0,188.67925 Z"
       copytype="single_stretched"
       prop_scale="1"
       scale_y_rel="false"
       spacing="0"
       normal_offset="0"
       tang_offset="0"
       prop_units="false"
       vertical_pattern="false"
       hide_knot="false"
       fuse_tolerance="0" />
    <inkscape:path-effect
       effect="powerstroke"
       id="path-effect13365"
       is_visible="true"
       lpeversion="1"
       offset_points="10,188.679"
       not_jump="false"
       sort_points="true"
       interpolator_type="CubicBezierJohan"
       interpolator_beta="0.2"
       start_linecap_type="zerowidth"
       linejoin_type="extrp_arc"
       miter_limit="4"
       scale_width="1"
       end_linecap_type="zerowidth" />
    <inkscape:path-effect
       effect="powerstroke"
       id="path-effect13361"
       is_visible="true"
       lpeversion="1"
       offset_points="0,188.679"
       not_jump="false"
       sort_points="true"
       interpolator_type="CubicBezierJohan"
       interpolator_beta="0.2"
       start_linecap_type="zerowidth"
       linejoin_type="extrp_arc"
       miter_limit="4"
       scale_width="1"
       end_linecap_type="zerowidth" />
    <inkscape:path-effect
       effect="powerstroke"
       id="path-effect13357"
       is_visible="true"
       lpeversion="1"
       offset_points="0,188.679"
       not_jump="false"
       sort_points="true"
       interpolator_type="CubicBezierJohan"
       interpolator_beta="0.2"
       start_linecap_type="zerowidth"
       linejoin_type="extrp_arc"
       miter_limit="4"
       scale_width="1"
       end_linecap_type="zerowidth" />
    <inkscape:path-effect
       effect="powerstroke"
       id="path-effect13353"
       is_visible="true"
       lpeversion="1"
       offset_points="0,188.679"
       not_jump="false"
       sort_points="true"
       interpolator_type="CubicBezierJohan"
       interpolator_beta="0.2"
       start_linecap_type="zerowidth"
       linejoin_type="extrp_arc"
       miter_limit="4"
       scale_width="1"
       end_linecap_type="zerowidth" />
    <inkscape:path-effect
       effect="powerstroke"
       id="path-effect13349"
       is_visible="true"
       lpeversion="1"
       offset_points="0,188.679"
       not_jump="false"
       sort_points="true"
       interpolator_type="CubicBezierJohan"
       interpolator_beta="0.2"
       start_linecap_type="zerowidth"
       linejoin_type="extrp_arc"
       miter_limit="4"
       scale_width="1"
       end_linecap_type="zerowidth" />
    <inkscape:path-effect
       effect="powerstroke"
       id="path-effect13345"
       is_visible="true"
       lpeversion="1"
       offset_points="0,188.679"
       not_jump="false"
       sort_points="true"
       interpolator_type="CubicBezierJohan"
       interpolator_beta="0.2"
       start_linecap_type="zerowidth"
       linejoin_type="extrp_arc"
       miter_limit="4"
       scale_width="1"
       end_linecap_type="zerowidth" />
    <inkscape:path-effect
       effect="powerstroke"
       id="path-effect13341"
       is_visible="true"
       lpeversion="1"
       offset_points="0,188.679"
       not_jump="false"
       sort_points="true"
       interpolator_type="CubicBezierJohan"
       interpolator_beta="0.2"
       start_linecap_type="zerowidth"
       linejoin_type="extrp_arc"
       miter_limit="4"
       scale_width="1"
       end_linecap_type="zerowidth" />
    <inkscape:path-effect
       effect="powerstroke"
       id="path-effect13337"
       is_visible="true"
       lpeversion="1"
       offset_points="0,188.679"
       not_jump="false"
       sort_points="true"
       interpolator_type="CubicBezierJohan"
       interpolator_beta="0.2"
       start_linecap_type="zerowidth"
       linejoin_type="extrp_arc"
       miter_limit="4"
       scale_width="1"
       end_linecap_type="zerowidth" />
    <inkscape:path-effect
       effect="powerstroke"
       id="path-effect13333"
       is_visible="true"
       lpeversion="1"
       offset_points="0,188.679"
       not_jump="false"
       sort_points="true"
       interpolator_type="CubicBezierJohan"
       interpolator_beta="0.2"
       start_linecap_type="zerowidth"
       linejoin_type="extrp_arc"
       miter_limit="4"
       scale_width="1"
       end_linecap_type="zerowidth" />
    <inkscape:path-effect
       effect="powerstroke"
       id="path-effect13329"
       is_visible="true"
       lpeversion="1"
       offset_points="0,188.679"
       not_jump="false"
       sort_points="true"
       interpolator_type="CubicBezierJohan"
       interpolator_beta="0.2"
       start_linecap_type="zerowidth"
       linejoin_type="extrp_arc"
       miter_limit="4"
       scale_width="1"
       end_linecap_type="zerowidth" />
    <inkscape:path-effect
       effect="powerstroke"
       id="path-effect13325"
       is_visible="true"
       lpeversion="1"
       offset_points="0,188.679"
       not_jump="false"
       sort_points="true"
       interpolator_type="CubicBezierJohan"
       interpolator_beta="0.2"
       start_linecap_type="zerowidth"
       linejoin_type="extrp_arc"
       miter_limit="4"
       scale_width="1"
       end_linecap_type="zerowidth" />
    <inkscape:path-effect
       effect="powerstroke"
       id="path-effect13321"
       is_visible="true"
       lpeversion="1"
       offset_points="0,188.679"
       not_jump="false"
       sort_points="true"
       interpolator_type="CubicBezierJohan"
       interpolator_beta="0.2"
       start_linecap_type="zerowidth"
       linejoin_type="extrp_arc"
       miter_limit="4"
       scale_width="1"
       end_linecap_type="zerowidth" />
    <inkscape:path-effect
       effect="bend_path"
       id="path-effect13315"
       is_visible="true"
       lpeversion="1"
       bendpath="m 1288.1547,445.71597 c 30.0021,89.04195 24.6709,178.47405 24.6709,271.71359 0,66.675 0,133.34998 0,200.02498"
       prop_scale="8"
       scale_y_rel="false"
       vertical="false"
       hide_knot="false" />
    <inkscape:path-effect
       effect="bend_path"
       id="path-effect13298"
       is_visible="true"
       lpeversion="1"
       bendpath="m 1087.4177,736.42601 c 30.9597,16.87899 52.0627,46.23729 78.7861,68.59536 6.0679,5.07661 13.6942,9.12271 19.268,14.69656"
       prop_scale="1"
       scale_y_rel="false"
       vertical="false"
       hide_knot="false" />
    <inkscape:path-effect
       effect="skeletal"
       id="path-effect13281"
       is_visible="true"
       lpeversion="1"
       pattern="M 0,188.67925 C 0,84.528302 84.528302,0 188.67925,0 c 104.15094,0 188.67924,84.528302 188.67924,188.67925 0,104.15094 -84.5283,188.67924 -188.67924,188.67924 C 84.528302,377.35849 0,292.83019 0,188.67925 Z"
       copytype="single_stretched"
       prop_scale="1"
       scale_y_rel="false"
       spacing="0"
       normal_offset="0"
       tang_offset="0"
       prop_units="false"
       vertical_pattern="false"
       hide_knot="false"
       fuse_tolerance="0" />
    <marker
       style="overflow:visible"
       id="Arrow1Lstart"
       refX="0"
       refY="0"
       orient="auto"
       inkscape:stockid="Arrow1Lstart"
       inkscape:isstock="true">
      <path
         transform="matrix(0.8,0,0,0.8,10,0)"
         style="fill-rule:evenodd;stroke:#000000;stroke-width:1pt"
         d="M 0,0 5,-5 -12.5,0 5,5 Z"
         id="path1033" />
    </marker>
    <linearGradient
       id="linearGradient847"
       inkscape:swatch="solid">
      <stop
         style="stop-color:#000000;stop-opacity:1;"
         offset="0"
         id="stop845" />
    </linearGradient>
    <filter
       style="color-interpolation-filters:sRGB"
       inkscape:label="Drop Shadow"
       id="filter4892"
       x="-0.0016465546"
       y="-0.0056113754"
       width="1.0046653"
       height="1.0158989">
      <feFlood
         flood-opacity="0.498039"
         flood-color="rgb(0,0,0)"
         result="flood"
         id="feFlood4882" />
      <feComposite
         in="flood"
         in2="SourceGraphic"
         operator="in"
         result="composite1"
         id="feComposite4884" />
      <feGaussianBlur
         in="composite1"
         stdDeviation="3"
         result="blur"
         id="feGaussianBlur4886" />
      <feOffset
         dx="6"
         dy="6"
         result="offset"
         id="feOffset4888" />
      <feComposite
         in="SourceGraphic"
         in2="offset"
         operator="over"
         result="composite2"
         id="feComposite4890" />
    </filter>
    <filter
       style="color-interpolation-filters:sRGB"
       inkscape:label="Drop Shadow"
       id="filter4892-2"
       x="-0.0024837004"
       width="1.0063396"
       y="-0.0084643271"
       height="1.0216048">
      <feFlood
         flood-opacity="0.498039"
         flood-color="rgb(0,0,0)"
         result="flood"
         id="feFlood4882-4" />
      <feComposite
         in="flood"
         in2="SourceGraphic"
         operator="in"
         result="composite1"
         id="feComposite4884-0" />
      <feGaussianBlur
         in="composite1"
         stdDeviation="4.5252686"
         result="blur"
         id="feGaussianBlur4886-4" />
      <feOffset
         dx="6"
         dy="6"
         result="offset"
         id="feOffset4888-1" />
      <feComposite
         in="SourceGraphic"
         in2="offset"
         operator="over"
         result="composite2"
         id="feComposite4890-3" />
    </filter>
    <filter
       style="color-interpolation-filters:sRGB"
       inkscape:label="Drop Shadow"
       id="filter4892-2-8"
       x="-0.0026949877"
       width="1.0067621"
       y="-0.0091843829"
       height="1.0230449">
      <feFlood
         flood-opacity="0.498039"
         flood-color="rgb(0,0,0)"
         result="flood"
         id="feFlood4882-4-5" />
      <feComposite
         in="flood"
         in2="SourceGraphic"
         operator="in"
         result="composite1"
         id="feComposite4884-0-8" />
      <feGaussianBlur
         in="composite1"
         stdDeviation="4.9102306"
         result="blur"
         id="feGaussianBlur4886-4-2" />
      <feOffset
         dx="6"
         dy="6"
         result="offset"
         id="feOffset4888-1-8" />
      <feComposite
         in="SourceGraphic"
         in2="offset"
         operator="over"
         result="composite2"
         id="feComposite4890-3-4" />
    </filter>
    <clipPath
       clipPathUnits="userSpaceOnUse"
       id="clipPath26095">
      <g
         id="g26101"
         transform="matrix(1.2091594,0,0,1,-2297.6248,-93.197701)">
        <path
           sodipodi:type="star"
           style="fill:#00ffff;fill-opacity:1"
           id="path26097"
           inkscape:flatsided="true"
           sodipodi:sides="3"
           sodipodi:cx="291.7088"
           sodipodi:cy="12.1157"
           sodipodi:r1="20.503492"
           sodipodi:r2="10.251747"
           sodipodi:arg1="0"
           sodipodi:arg2="1.0471976"
           inkscape:rounded="0"
           inkscape:randomized="0"
           transform="matrix(10.909091,16.6148,-18.8951,9.5925592,2960.3256,-4216.6644)"
           inkscape:transform-center-x="111.83742"
           inkscape:transform-center-y="6.5843744e-05"
           d="M 312.21229,12.1157 281.45706,29.872245 V -5.6408455 Z" />
        <path
           sodipodi:type="star"
           style="fill:#00ffff;fill-opacity:1"
           id="path26099"
           inkscape:flatsided="true"
           sodipodi:sides="3"
           sodipodi:cx="291.7088"
           sodipodi:cy="12.1157"
           sodipodi:r1="20.503492"
           sodipodi:r2="10.251747"
           sodipodi:arg1="0"
           sodipodi:arg2="1.0471976"
           inkscape:rounded="0"
           inkscape:randomized="0"
           transform="matrix(10.909091,16.6148,-18.8951,9.5925592,2960.3256,-4622.0744)"
           inkscape:transform-center-x="111.83742"
           inkscape:transform-center-y="6.5843744e-05"
           d="M 312.21229,12.1157 281.45706,29.872245 V -5.6408455 Z" />
      </g>
    </clipPath>
  </defs>
  <sodipodi:namedview
     pagecolor="#ffffff"
     bordercolor="#666666"
     borderopacity="1"
     objecttolerance="10"
     gridtolerance="10"
     guidetolerance="10"
     inkscape:pageopacity="0"
     inkscape:pageshadow="2"
     inkscape:window-width="1366"
     inkscape:window-height="703"
     id="namedview23"
     showgrid="false"
     inkscape:zoom="1"
     inkscape:cx="291"
     inkscape:cy="66.5"
     inkscape:window-x="0"
     inkscape:window-y="0"
     inkscape:window-maximized="1"
     inkscape:current-layer="svg21"
     inkscape:document-rotation="0"
     fit-margin-top="0"
     fit-margin-left="0"
     fit-margin-right="0"
     fit-margin-bottom="0"
     inkscape:pagecheckerboard="0"
     showguides="false"
     width="731.29163px"
     height="145px" />
  <g
     aria-label="RETR   "
     id="text2609"
     style="font-size:2133.33px;line-height:1.25;font-family:'Game Over';-inkscape-font-specification:'Game Over';fill:#ffd000;fill-rule:evenodd;stroke-width:10"
     transform="translate(-100)">
    <path
       d="m 1972.01,727.01677 h -135.36 v 66.74985 h 67.2 v 68.65699 h 68.16 v 69.61056 h -203.52 v -64.84272 h -68.16 v -70.56412 h -67.2 v 135.40684 h -139.2 V 457.15666 h 409.92 v 64.84271 h 68.16 z M 1834.73,659.31335 V 524.86008 h -203.52 v 202.15669 h 138.24 v -67.70342 z"
       style="font-size:960px;font-family:ArcadeClassic;-inkscape-font-specification:ArcadeClassic;stroke-width:9.96645"
       id="path110907" />
    <path
       d="m 2500.9454,931.39666 h -476.1362 v -475.1915 h 476.1362 v 66.13003 h -339.1526 v 135.0942 h 203.1137 v 69.90889 h -203.1137 v 135.09421 h 339.1526 z"
       style="font-size:960px;font-family:ArcadeClassic;-inkscape-font-specification:ArcadeClassic;stroke-width:9.84078"
       id="path110909" />
    <path
       d="m 2925.2885,523.39666 h -134.4 v 411.84 h -138.24 v -408 h -137.28 v -70.08 h 409.92 z"
       style="font-size:960px;font-family:ArcadeClassic;-inkscape-font-specification:ArcadeClassic"
       id="path110911" />
    <path
       d="m 3556.0078,728.83666 h -135.36 v 67.2 h 67.2 v 69.12 h 68.16 v 70.08 h -203.52 v -65.28 h -68.16 v -71.04 h -67.2 v 136.32 h -139.2 v -478.08 h 409.92 v 65.28 h 68.16 z m -137.28,-68.16 v -135.36 h -203.52 v 203.52 h 138.24 v -68.16 z"
       style="font-size:960px;font-family:ArcadeClassic;-inkscape-font-specification:ArcadeClassic"
       id="path110913" />
  </g>
  <g
     aria-label="BOX"
     id="text1018"
     style="font-size:960px;line-height:1.25;fill:#00d8c8;fill-rule:evenodd;stroke-width:10"
     transform="translate(-100)">
    <path
       d="m 4751.9458,866.0699 h -65.28 v 69.12 h -412.8 v -478.08 h 409.92 v 65.28 h 68.16 v 138.24 h -66.24 v 67.2 h 66.24 z m -137.28,-205.44 v -135.36 h -203.52 v 135.36 z m 0,205.44 v -135.36 h -203.52 v 135.36 z"
       style="font-family:ArcadeClassic;-inkscape-font-specification:ArcadeClassic"
       id="path114196" />
    <path
       d="m 5279.945,866.0699 h -65.28 v 69.12 h -343.68 v -65.28 h -69.12 v -344.64 h 65.28 v -68.16 h 344.64 v 65.28 h 68.16 z m -137.28,0 v -340.8 h -203.52 v 340.8 z"
       style="font-family:ArcadeClassic;-inkscape-font-specification:ArcadeClassic;fill:#00d8c8;fill-opacity:1"
       id="path114198" />
    <path
       d="m 5807.9443,935.1899 h -135.36 v -65.28 h -68.16 v -71.04 h -67.2 v 67.2 h -68.16 v 69.12 h -139.2 v -135.36 h 65.28 v -69.12 h 70.08 v -67.2 h -66.24 v -68.16 h -69.12 v -138.24 h 135.36 v 65.28 h 69.12 v 70.08 h 66.24 v -67.2 h 69.12 v -68.16 h 138.24 v 134.4 h -65.28 v 69.12 h -70.08 v 67.2 h 67.2 v 68.16 h 68.16 z"
       style="font-family:ArcadeClassic;-inkscape-font-specification:ArcadeClassic"
       id="path114200" />
  </g>
  <g
     aria-label="🄯 Manu  Romero  2018-2022"
     id="text1022"
     style="font-size:160px;line-height:1.25;font-family:'Noto Sans';-inkscape-font-specification:'Noto Sans';fill:#c8c8c8;fill-rule:evenodd;stroke-width:10"
     transform="matrix(0.51563666,0,0,0.51563666,2730.754,454.97576)">
    <path
       d="m 3982.7128,1503.4283 c 31.2,0 57.76,-23.2 57.76,-59.52 0,-36.32 -26.56,-59.04 -57.76,-59.04 -31.04,0 -57.76,22.72 -57.76,59.04 0,36.32 26.72,59.52 57.76,59.52 z m 0,-7.2 c -27.04,0 -49.44,-21.12 -49.44,-52.32 0,-31.2 22.4,-51.84 49.44,-51.84 26.88,0 49.44,20.64 49.44,51.84 0,31.2 -22.56,52.32 -49.44,52.32 z m -1.44,-16.96 c 18.08,0 32.64,-13.28 32.64,-35.36 0,-20.8 -15.04,-33.76 -31.68,-33.76 -10.88,0 -17.76,4.16 -23.84,10.08 l 6.24,7.04 c 5.12,-4.8 10.24,-7.36 16.96,-7.36 12.48,0 20.48,9.92 20.48,24 0,15.84 -8.32,25.6 -21.28,25.6 -7.68,0 -12.96,-3.52 -18.24,-8 l -5.44,7.68 c 6.56,5.6 13.44,10.08 24.16,10.08 z"
       style="font-family:ArcadeClassic;-inkscape-font-specification:ArcadeClassic"
       id="path120072" />
    <path
       d="m 4149.5924,1491.2683 h -22.56 v -34.08 h -11.2 v 11.2 h -11.52 v -11.2 h -11.2 v 34.08 h -23.2 v -79.68 h 22.56 v 10.88 h 11.52 v 11.68 h 11.04 v -11.2 h 11.52 v -11.36 h 23.04 z"
       style="font-family:ArcadeClassic;-inkscape-font-specification:ArcadeClassic"
       id="path120074" />
    <path
       d="m 4237.5923,1491.2683 h -22.56 v -22.72 h -33.92 v 22.72 h -23.2 v -56.96 h 10.88 v -11.36 h 11.52 v -11.36 h 34.4 v 10.88 h 11.52 v 11.36 h 11.36 z m -22.88,-34.4 v -23.04 h -11.36 v -10.88 h -11.68 v 11.52 h -10.88 v 22.4 z"
       style="font-family:ArcadeClassic;-inkscape-font-specification:ArcadeClassic"
       id="path120076" />
    <path
       d="m 4325.5921,1491.2683 h -22.56 v -10.88 h -11.36 v -11.52 h -11.36 v -11.68 h -11.2 v 34.08 h -23.2 v -79.68 h 22.56 v 10.88 h 11.52 v 11.36 h 11.36 v 11.68 h 11.2 v -33.92 h 23.04 z"
       style="font-family:ArcadeClassic;-inkscape-font-specification:ArcadeClassic"
       id="path120078" />
    <path
       d="m 4413.592,1479.7483 h -10.88 v 11.52 h -57.28 v -10.88 h -11.52 v -68.8 h 22.56 v 68.16 h 34.08 v -68.16 h 23.04 z"
       style="font-family:ArcadeClassic;-inkscape-font-specification:ArcadeClassic"
       id="path120080" />
    <path
       d="m 4542.5514,1456.8683 h -22.56 v 11.2 h 11.2 v 11.52 h 11.36 v 11.68 h -33.92 v -10.88 h -11.36 v -11.84 h -11.2 v 22.72 h -23.2 v -79.68 h 68.32 v 10.88 h 11.36 z m -22.88,-11.36 v -22.56 h -33.92 v 33.92 h 23.04 v -11.36 z"
       style="font-family:ArcadeClassic;-inkscape-font-specification:ArcadeClassic"
       id="path120082" />
    <path
       d="m 4630.5512,1479.7483 h -10.88 v 11.52 h -57.28 v -10.88 h -11.52 v -57.44 h 10.88 v -11.36 h 57.44 v 10.88 h 11.36 z m -22.88,0 v -56.8 h -33.92 v 56.8 z"
       style="font-family:ArcadeClassic;-inkscape-font-specification:ArcadeClassic"
       id="path120084" />
    <path
       d="m 4718.5511,1491.2683 h -22.56 v -34.08 h -11.2 v 11.2 h -11.52 v -11.2 h -11.2 v 34.08 h -23.2 v -79.68 h 22.56 v 10.88 h 11.52 v 11.68 h 11.04 v -11.2 h 11.52 v -11.36 h 23.04 z"
       style="font-family:ArcadeClassic;-inkscape-font-specification:ArcadeClassic"
       id="path120086" />
    <path
       d="m 4807.991,1490.6283 h -80.64 v -80.48 h 80.64 v 11.2 h -57.44 v 22.88 h 34.4 v 11.84 h -34.4 v 22.88 h 57.44 z"
       style="font-family:ArcadeClassic;-inkscape-font-specification:ArcadeClassic"
       id="path120088" />
    <path
       d="m 4894.5509,1456.8683 h -22.56 v 11.2 h 11.2 v 11.52 h 11.36 v 11.68 h -33.92 v -10.88 h -11.36 v -11.84 h -11.2 v 22.72 h -23.2 v -79.68 h 68.32 v 10.88 h 11.36 z m -22.88,-11.36 v -22.56 h -33.92 v 33.92 h 23.04 v -11.36 z"
       style="font-family:ArcadeClassic;-inkscape-font-specification:ArcadeClassic"
       id="path120090" />
    <path
       d="m 4982.5508,1479.7483 h -10.88 v 11.52 h -57.28 v -10.88 h -11.52 v -57.44 h 10.88 v -11.36 h 57.44 v 10.88 h 11.36 z m -22.88,0 v -56.8 h -33.92 v 56.8 z"
       style="font-family:ArcadeClassic;-inkscape-font-specification:ArcadeClassic"
       id="path120092" />
    <path
       d="m 5111.5102,1445.5083 h -10.88 v 11.36 h -11.36 v 11.52 h -23.2 v 11.2 h 45.44 v 11.68 h -79.68 v -22.56 h 10.88 v -11.52 h 11.52 v -11.36 h 22.72 v -11.52 h 11.84 v -11.36 h -33.76 v 11.04 h -23.2 v -11.04 h 10.88 v -11.36 h 57.44 v 10.88 h 11.36 z"
       style="font-family:ArcadeClassic;-inkscape-font-specification:ArcadeClassic"
       id="path120094" />
    <path
       d="m 5199.5099,1468.3883 h -10.88 v 11.36 h -11.36 v 11.52 h -34.56 v -10.88 h -11.36 v -11.52 h -11.52 v -34.56 h 10.88 v -11.36 h 11.52 v -11.36 h 34.4 v 10.88 h 11.52 v 11.36 h 11.36 z m -22.88,11.36 v -45.92 h -11.36 v -10.88 h -22.56 v 45.92 h 11.52 v 10.88 z"
       style="font-family:ArcadeClassic;-inkscape-font-specification:ArcadeClassic"
       id="path120096" />
    <path
       d="m 5286.3899,1491.2683 h -68.32 v -11.2 h 22.56 v -45.44 h -11.04 v -11.68 h 10.88 v -11.36 h 23.04 v 68 h 22.88 z"
       style="font-family:ArcadeClassic;-inkscape-font-specification:ArcadeClassic"
       id="path120098" />
    <path
       d="m 5375.5097,1479.7483 h -10.88 v 11.52 h -57.28 v -10.88 h -11.52 v -23.2 h 11.2 v -11.2 h -11.2 v -23.04 h 10.88 v -11.36 h 45.92 v 10.88 h 11.52 v 23.04 h -11.2 v 11.2 h 22.56 z m -22.88,-34.24 v -22.56 h -33.92 v 11.68 h 11.52 v 10.88 z m 0,34.24 v -11.68 h -22.72 v -10.88 h -22.56 v 22.56 z"
       style="font-family:ArcadeClassic;-inkscape-font-specification:ArcadeClassic"
       id="path120100" />
    <path
       d="m 5391.4822,1451.434 h 42.1094 v 12.8125 h -42.1094 z"
       style="font-family:ArcadeClassic;-inkscape-font-specification:ArcadeClassic"
       id="path120102" />
    <path
       d="m 5521.2441,1445.5083 h -10.88 v 11.36 h -11.36 v 11.52 h -23.2 v 11.2 h 45.44 v 11.68 h -79.68 v -22.56 h 10.88 v -11.52 h 11.52 v -11.36 h 22.72 v -11.52 h 11.84 v -11.36 h -33.76 v 11.04 h -23.2 v -11.04 h 10.88 v -11.36 h 57.44 v 10.88 h 11.36 z"
       style="font-family:ArcadeClassic;-inkscape-font-specification:ArcadeClassic"
       id="path120104" />
    <path
       d="m 5609.2438,1468.3883 h -10.88 v 11.36 h -11.36 v 11.52 h -34.56 v -10.88 h -11.36 v -11.52 h -11.52 v -34.56 h 10.88 v -11.36 h 11.52 v -11.36 h 34.4 v 10.88 h 11.52 v 11.36 h 11.36 z m -22.88,11.36 v -45.92 h -11.36 v -10.88 h -22.56 v 45.92 h 11.52 v 10.88 z"
       style="font-family:ArcadeClassic;-inkscape-font-specification:ArcadeClassic"
       id="path120106" />
    <path
       d="m 5697.2438,1445.5083 h -10.88 v 11.36 h -11.36 v 11.52 h -23.2 v 11.2 h 45.44 v 11.68 h -79.68 v -22.56 h 10.88 v -11.52 h 11.52 v -11.36 h 22.72 v -11.52 h 11.84 v -11.36 h -33.76 v 11.04 h -23.2 v -11.04 h 10.88 v -11.36 h 57.44 v 10.88 h 11.36 z"
       style="font-family:ArcadeClassic;-inkscape-font-specification:ArcadeClassic"
       id="path120108" />
    <path
       d="m 5785.2436,1445.5083 h -10.88 v 11.36 h -11.36 v 11.52 h -23.2 v 11.2 h 45.44 v 11.68 h -79.68 v -22.56 h 10.88 v -11.52 h 11.52 v -11.36 h 22.72 v -11.52 h 11.84 v -11.36 h -33.76 v 11.04 h -23.2 v -11.04 h 10.88 v -11.36 h 57.44 v 10.88 h 11.36 z"
       style="font-family:ArcadeClassic;-inkscape-font-specification:ArcadeClassic"
       id="path120110" />
  </g>
  <g
     aria-label="BASADO  EN  DIVERSO  SOFTWARE  LIBRE"
     id="text74939"
     style="font-size:160px;line-height:1.25;stroke-width:10"
     transform="matrix(0.51563666,0,0,0.51563666,2730.754,454.97576)">
    <path
       d="m 3244.0885,1616.8628 h -10.88 v 11.52 h -68.8 v -79.68 h 68.32 v 10.88 h 11.36 v 23.04 h -11.04 v 11.2 h 11.04 z m -22.88,-34.24 v -22.56 h -33.92 v 22.56 z m 0,34.24 v -22.56 h -33.92 v 22.56 z"
       style="font-family:ArcadeClassic;-inkscape-font-specification:ArcadeClassic;fill:#c8c8c8"
       id="path121593" />
    <path
       d="m 3332.0884,1628.3828 h -22.56 v -22.72 h -33.92 v 22.72 h -23.2 v -56.96 h 10.88 v -11.36 h 11.52 v -11.36 h 34.4 v 10.88 h 11.52 v 11.36 h 11.36 z m -22.88,-34.4 v -23.04 h -11.36 v -10.88 h -11.68 v 11.52 h -10.88 v 22.4 z"
       style="font-family:ArcadeClassic;-inkscape-font-specification:ArcadeClassic;fill:#c8c8c8"
       id="path121595" />
    <path
       d="m 3420.0883,1616.8628 h -10.88 v 11.52 h -57.28 v -10.88 h -11.52 v -11.68 h 22.56 v 11.04 h 34.4 v -22.24 h -45.44 v -11.52 h -11.52 v -23.04 h 10.88 v -11.36 h 45.92 v 10.88 h 11.52 v 11.52 h -22.56 v -11.04 h -22.88 v 22.24 h 45.44 v 11.52 h 11.36 z"
       style="font-family:ArcadeClassic;-inkscape-font-specification:ArcadeClassic;fill:#c8c8c8"
       id="path121597" />
    <path
       d="m 3508.0882,1628.3828 h -22.56 v -22.72 h -33.92 v 22.72 h -23.2 v -56.96 h 10.88 v -11.36 h 11.52 v -11.36 h 34.4 v 10.88 h 11.52 v 11.36 h 11.36 z m -22.88,-34.4 v -23.04 h -11.36 v -10.88 h -11.68 v 11.52 h -10.88 v 22.4 z"
       style="font-family:ArcadeClassic;-inkscape-font-specification:ArcadeClassic;fill:#c8c8c8"
       id="path121599" />
    <path
       d="m 3596.088,1605.5028 h -10.88 v 11.36 h -11.36 v 11.52 h -57.44 v -79.68 h 56.8 v 10.88 h 11.52 v 11.36 h 11.36 z m -22.88,0 v -34.56 h -11.36 v -10.88 h -22.56 v 56.8 h 23.04 v -11.36 z"
       style="font-family:ArcadeClassic;-inkscape-font-specification:ArcadeClassic;fill:#c8c8c8"
       id="path121601" />
    <path
       d="m 3684.0879,1616.8628 h -10.88 v 11.52 h -57.28 v -10.88 h -11.52 v -57.44 h 10.88 v -11.36 h 57.44 v 10.88 h 11.36 z m -22.88,0 v -56.8 h -33.92 v 56.8 z"
       style="font-family:ArcadeClassic;-inkscape-font-specification:ArcadeClassic;fill:#c8c8c8"
       id="path121603" />
    <path
       d="m 3814.4873,1627.7428 h -80.64 v -80.48 h 80.64 v 11.2 h -57.44 v 22.88 h 34.4 v 11.84 h -34.4 v 22.88 h 57.44 z"
       style="font-family:ArcadeClassic;-inkscape-font-specification:ArcadeClassic;fill:#c8c8c8"
       id="path121605" />
    <path
       d="m 3901.0472,1628.3828 h -22.56 v -10.88 h -11.36 v -11.52 h -11.36 v -11.68 h -11.2 v 34.08 h -23.2 v -79.68 h 22.56 v 10.88 h 11.52 v 11.36 h 11.36 v 11.68 h 11.2 v -33.92 h 23.04 z"
       style="font-family:ArcadeClassic;-inkscape-font-specification:ArcadeClassic;fill:#c8c8c8"
       id="path121607" />
    <path
       d="m 4030.0065,1605.5028 h -10.88 v 11.36 h -11.36 v 11.52 h -57.44 v -79.68 h 56.8 v 10.88 h 11.52 v 11.36 h 11.36 z m -22.88,0 v -34.56 h -11.36 v -10.88 h -22.56 v 56.8 h 23.04 v -11.36 z"
       style="font-family:ArcadeClassic;-inkscape-font-specification:ArcadeClassic;fill:#c8c8c8"
       id="path121609" />
    <path
       d="m 4114.6464,1628.3828 h -68.32 v -11.2 h 22.56 v -56.8 h -22.56 v -11.68 h 68.32 v 11.04 h -22.56 v 56.96 h 22.56 z"
       style="font-family:ArcadeClassic;-inkscape-font-specification:ArcadeClassic;fill:#c8c8c8"
       id="path121611" />
    <path
       d="m 4206.0063,1593.9828 h -10.88 v 11.52 h -11.36 v 11.36 h -11.52 v 11.52 h -11.52 v -10.88 h -11.52 v -11.52 h -11.36 v -11.36 h -11.52 v -45.92 h 22.56 v 33.6 h 11.52 v 11.84 h 11.04 v -11.2 h 11.52 v -34.24 h 23.04 z"
       style="font-family:ArcadeClassic;-inkscape-font-specification:ArcadeClassic;fill:#c8c8c8"
       id="path121613" />
    <path
       d="m 4295.4461,1627.7428 h -80.64 v -80.48 h 80.64 v 11.2 h -57.44 v 22.88 h 34.4 v 11.84 h -34.4 v 22.88 h 57.44 z"
       style="font-family:ArcadeClassic;-inkscape-font-specification:ArcadeClassic;fill:#c8c8c8"
       id="path121615" />
    <path
       d="m 4382.006,1593.9828 h -22.56 v 11.2 h 11.2 v 11.52 h 11.36 v 11.68 h -33.92 v -10.88 h -11.36 v -11.84 h -11.2 v 22.72 h -23.2 v -79.68 h 68.32 v 10.88 h 11.36 z m -22.88,-11.36 v -22.56 h -33.92 v 33.92 h 23.04 v -11.36 z"
       style="font-family:ArcadeClassic;-inkscape-font-specification:ArcadeClassic;fill:#c8c8c8"
       id="path121617" />
    <path
       d="m 4470.0059,1616.8628 h -10.88 v 11.52 h -57.28 v -10.88 h -11.52 v -11.68 h 22.56 v 11.04 h 34.4 v -22.24 h -45.44 v -11.52 h -11.52 v -23.04 h 10.88 v -11.36 h 45.92 v 10.88 h 11.52 v 11.52 h -22.56 v -11.04 h -22.88 v 22.24 h 45.44 v 11.52 h 11.36 z"
       style="font-family:ArcadeClassic;-inkscape-font-specification:ArcadeClassic;fill:#c8c8c8"
       id="path121619" />
    <path
       d="m 4558.0058,1616.8628 h -10.88 v 11.52 h -57.28 v -10.88 h -11.52 v -57.44 h 10.88 v -11.36 h 57.44 v 10.88 h 11.36 z m -22.88,0 v -56.8 h -33.92 v 56.8 z"
       style="font-family:ArcadeClassic;-inkscape-font-specification:ArcadeClassic;fill:#c8c8c8"
       id="path121621" />
    <path
       d="m 4686.9651,1616.8628 h -10.88 v 11.52 h -57.28 v -10.88 h -11.52 v -11.68 h 22.56 v 11.04 h 34.4 v -22.24 h -45.44 v -11.52 h -11.52 v -23.04 h 10.88 v -11.36 h 45.92 v 10.88 h 11.52 v 11.52 h -22.56 v -11.04 h -22.88 v 22.24 h 45.44 v 11.52 h 11.36 z"
       style="font-family:ArcadeClassic;-inkscape-font-specification:ArcadeClassic;fill:#c8c8c8"
       id="path121623" />
    <path
       d="m 4774.965,1616.8628 h -10.88 v 11.52 h -57.28 v -10.88 h -11.52 v -57.44 h 10.88 v -11.36 h 57.44 v 10.88 h 11.36 z m -22.88,0 v -56.8 h -33.92 v 56.8 z"
       style="font-family:ArcadeClassic;-inkscape-font-specification:ArcadeClassic;fill:#c8c8c8"
       id="path121625" />
    <path
       d="m 4862.9649,1559.7428 h -56.8 v 22.56 h 45.44 v 11.68 h -45.12 v 34.4 h -23.2 v -79.68 h 79.68 z"
       style="font-family:ArcadeClassic;-inkscape-font-specification:ArcadeClassic;fill:#c8c8c8"
       id="path121627" />
    <path
       d="m 4933.8448,1559.7428 h -22.4 v 68.64 h -23.04 v -68 h -22.88 v -11.68 h 68.32 z"
       style="font-family:ArcadeClassic;-inkscape-font-specification:ArcadeClassic;fill:#c8c8c8"
       id="path121629" />
    <path
       d="m 5038.9646,1628.3828 h -22.56 v -10.88 h -11.36 v -11.84 h -11.2 v 11.2 h -11.36 v 11.52 h -23.2 v -79.68 h 22.56 v 33.92 h 11.2 v -11.04 h 11.68 v 11.04 h 11.2 v -33.92 h 23.04 z"
       style="font-family:ArcadeClassic;-inkscape-font-specification:ArcadeClassic;fill:#c8c8c8"
       id="path121631" />
    <path
       d="m 5126.9645,1628.3828 h -22.56 v -22.72 h -33.92 v 22.72 h -23.2 v -56.96 h 10.88 v -11.36 h 11.52 v -11.36 h 34.4 v 10.88 h 11.52 v 11.36 h 11.36 z m -22.88,-34.4 v -23.04 h -11.36 v -10.88 h -11.68 v 11.52 h -10.88 v 22.4 z"
       style="font-family:ArcadeClassic;-inkscape-font-specification:ArcadeClassic;fill:#c8c8c8"
       id="path121633" />
    <path
       d="m 5214.9644,1593.9828 h -22.56 v 11.2 h 11.2 v 11.52 h 11.36 v 11.68 h -33.92 v -10.88 h -11.36 v -11.84 h -11.2 v 22.72 h -23.2 v -79.68 h 68.32 v 10.88 h 11.36 z m -22.88,-11.36 v -22.56 h -33.92 v 33.92 h 23.04 v -11.36 z"
       style="font-family:ArcadeClassic;-inkscape-font-specification:ArcadeClassic;fill:#c8c8c8"
       id="path121635" />
    <path
       d="m 5304.4043,1627.7428 h -80.64 v -80.48 h 80.64 v 11.2 h -57.44 v 22.88 h 34.4 v 11.84 h -34.4 v 22.88 h 57.44 z"
       style="font-family:ArcadeClassic;-inkscape-font-specification:ArcadeClassic;fill:#c8c8c8"
       id="path121637" />
    <path
       d="m 5414.8035,1628.3828 h -68.32 v -79.68 h 22.56 v 68 h 45.76 z"
       style="font-family:ArcadeClassic;-inkscape-font-specification:ArcadeClassic;fill:#c8c8c8"
       id="path121639" />
    <path
       d="m 5516.5635,1628.3828 h -68.32 v -11.2 h 22.56 v -56.8 h -22.56 v -11.68 h 68.32 v 11.04 h -22.56 v 56.96 h 22.56 z"
       style="font-family:ArcadeClassic;-inkscape-font-specification:ArcadeClassic;fill:#c8c8c8"
       id="path121641" />
    <path
       d="m 5607.9235,1616.8628 h -10.88 v 11.52 h -68.8 v -79.68 h 68.32 v 10.88 h 11.36 v 23.04 h -11.04 v 11.2 h 11.04 z m -22.88,-34.24 v -22.56 h -33.92 v 22.56 z m 0,34.24 v -22.56 h -33.92 v 22.56 z"
       style="font-family:ArcadeClassic;-inkscape-font-specification:ArcadeClassic;fill:#c8c8c8"
       id="path121643" />
    <path
       d="m 5695.9233,1593.9828 h -22.56 v 11.2 h 11.2 v 11.52 h 11.36 v 11.68 h -33.92 v -10.88 h -11.36 v -11.84 h -11.2 v 22.72 h -23.2 v -79.68 h 68.32 v 10.88 h 11.36 z m -22.88,-11.36 v -22.56 h -33.92 v 33.92 h 23.04 v -11.36 z"
       style="font-family:ArcadeClassic;-inkscape-font-specification:ArcadeClassic;fill:#c8c8c8"
       id="path121645" />
    <path
       d="m 5785.363,1627.7428 h -80.64 v -80.48 h 80.64 v 11.2 h -57.44 v 22.88 h 34.4 v 11.84 h -34.4 v 22.88 h 57.44 z"
       style="font-family:ArcadeClassic;-inkscape-font-specification:ArcadeClassic;fill:#c8c8c8"
       id="path121647" />
  </g>
  <path
     style="fill:#ffcc00;stroke-width:1.00556"
     d="m 3538.4963,821.04297 a 290.04012,274.99995 0 1 0 -0.7684,-245.37019 l 259.9119,121.95553 z"
     id="path2626" />
  <g
     id="g77563"
     transform="translate(-112.5296,-4.3667603)">
    <path
       style="fill:#00a080;fill-opacity:1;stroke:#000000;stroke-width:0;stroke-linecap:butt;stroke-linejoin:miter;stroke-miterlimit:4;stroke-dasharray:none;stroke-opacity:1"
       d="m 425.33917,491.90811 380.38474,219.61527 0.004,439.23772 L 425.33917,931.14347 V 491.90811"
       id="path38612" />
    <path
       style="fill:#cd0080;fill-opacity:1;stroke:#000000;stroke-width:0;stroke-linecap:butt;stroke-linejoin:miter;stroke-miterlimit:4;stroke-dasharray:none;stroke-opacity:1"
       d="M 425.33917,491.90811 805.72414,711.5234 1186.1172,491.90813 805.72814,272.29042 Z"
       id="path55695" />
    <path
       style="fill:#18346a;fill-opacity:1;stroke:#000000;stroke-width:0;stroke-linecap:butt;stroke-linejoin:miter;stroke-miterlimit:4;stroke-dasharray:none;stroke-opacity:1"
       d="M 805.72791,1150.7611 1186.1172,931.14351 V 491.90813 l -380.39329,219.61525 0.004,439.23772"
       id="path59671" />
  </g>
</svg>
